<svg xmlns="http://www.w3.org/2000/svg" xmlns:xlink="http://www.w3.org/1999/xlink" width="279" height="86" viewBox="0 0 279 86"><defs><filter id="a" x="73" y="0" width="206" height="86" filterUnits="userSpaceOnUse"><feOffset dy="3" input="SourceAlpha"/><feGaussianBlur stdDeviation="3" result="b"/><feFlood flood-opacity="0.161"/><feComposite operator="in" in2="b"/><feComposite in="SourceGraphic"/></filter><filter id="c" x="0" y="7.5" width="71" height="71" filterUnits="userSpaceOnUse"><feOffset dy="3" input="SourceAlpha"/><feGaussianBlur stdDeviation="3" result="d"/><feFlood flood-opacity="0.161"/><feComposite operator="in" in2="d"/><feComposite in="SourceGraphic"/></filter></defs><g transform="translate(-201 -506)"><g transform="matrix(1, 0, 0, 1, 201, 506)" filter="url(#a)"><text transform="translate(82 55)" fill="#fbb731" font-size="48" font-family="SourceSansPro-Bold, Source Sans Pro" font-weight="700" letter-spacing="0.086em"><tspan x="0" y="0">CESNET</tspan></text></g><g transform="matrix(1, 0, 0, 1, 201, 506)" filter="url(#c)"><path d="M27.062.563a26.5,26.5,0,1,0,14.469,48.7,2.568,2.568,0,0,0,.593-3.78l-1.087-1.329a2.557,2.557,0,0,0-3.352-.548A19.662,19.662,0,1,1,27.062,7.4c10.7,0,19.661,6.157,19.661,17.1,0,4.144-2.254,8.521-6.216,8.943-1.854-.049-1.807-1.374-1.44-3.208l2.5-12.941a2.564,2.564,0,0,0-2.518-3.052H34.248a1.444,1.444,0,0,0-1.435,1.282v.01C31.241,13.618,28.489,13.2,26.4,13.2c-7.969,0-14.728,6.65-14.728,16.184,0,6.978,3.931,11.313,10.258,11.313a10.812,10.812,0,0,0,8.013-4.1c1.017,3.644,4.34,3.644,7.556,3.644,11.637,0,16.06-7.652,16.06-15.751C53.563,9.929,41.811.563,27.062.563Zm-2.317,32.53c-2.377,0-3.854-1.669-3.854-4.357,0-4.808,3.289-7.771,6.265-7.771,2.382,0,3.8,1.629,3.8,4.356C30.961,30.136,27.341,33.092,24.746,33.092Z" transform="translate(8.44 12.94)" fill="#fbb731"/></g></g></svg>