<svg xmlns="http://www.w3.org/2000/svg" xmlns:xlink="http://www.w3.org/1999/xlink" width="313.978" height="1080.165" viewBox="0 0 313.978 1080.165"><defs><filter id="a" x="105.4" y="0" width="166.246" height="246.525" filterUnits="userSpaceOnUse"><feOffset dy="3" input="SourceAlpha"/><feGaussianBlur stdDeviation="3" result="b"/><feFlood flood-opacity="0.161"/><feComposite operator="in" in2="b"/><feComposite in="SourceGraphic"/></filter><filter id="c" x="98.237" y="311.47" width="215.742" height="216.528" filterUnits="userSpaceOnUse"><feOffset dx="-8" dy="-9" input="SourceAlpha"/><feGaussianBlur stdDeviation="3" result="d"/><feFlood flood-opacity="0.161"/><feComposite operator="in" in2="d"/><feComposite in="SourceGraphic"/></filter><filter id="e" x="83.909" y="898.906" width="195.995" height="181.259" filterUnits="userSpaceOnUse"><feOffset dx="-5" dy="-2" input="SourceAlpha"/><feGaussianBlur stdDeviation="3" result="f"/><feFlood flood-opacity="0.161"/><feComposite operator="in" in2="f"/><feComposite in="SourceGraphic"/></filter><filter id="g" x="90.367" y="461.392" width="186.31" height="182.518" filterUnits="userSpaceOnUse"><feOffset dx="-8" dy="-3" input="SourceAlpha"/><feGaussianBlur stdDeviation="3" result="h"/><feFlood flood-opacity="0.161"/><feComposite operator="in" in2="h"/><feComposite in="SourceGraphic"/></filter><filter id="i" x="0" y="679.7" width="183.898" height="190.516" filterUnits="userSpaceOnUse"><feOffset dx="-8" dy="-3" input="SourceAlpha"/><feGaussianBlur stdDeviation="3" result="j"/><feFlood flood-opacity="0.161"/><feComposite operator="in" in2="j"/><feComposite in="SourceGraphic"/></filter></defs><g transform="matrix(0.982, 0, 0.01, 0.999, -1693.951, 55.581)"><g transform="matrix(1.02, 0, -0.01, 1, 1726.22, -55.66)" filter="url(#a)"><rect width="112" height="206" rx="20" transform="matrix(0.97, 0.17, -0.16, 0.98, 147.99, 24.46)" fill="#fff"/></g><g transform="matrix(1.02, 0, -0.01, 1, 1726.22, -55.66)" filter="url(#c)"><rect width="170" height="164" rx="10" transform="matrix(0.97, -0.16, 0.16, 0.99, 115.35, 366.19)" fill="#fff"/></g><g transform="matrix(1.02, 0, -0.01, 1, 1726.22, -55.66)" filter="url(#e)"><rect width="140" height="128" rx="11" transform="matrix(0.86, -0.47, 0.47, 0.88, 95.37, 978.82)" fill="#fff" opacity="0.457"/></g><g transform="matrix(1.02, 0, -0.01, 1, 1726.22, -55.66)" filter="url(#g)"><rect width="151" height="146" rx="10" transform="matrix(0.97, -0.12, 0.13, 0.99, 106.98, 494.23)" fill="#fff"/></g><g transform="matrix(1.02, 0, -0.01, 1, 1726.22, -55.66)" filter="url(#i)"><rect width="151" height="146" rx="11" transform="matrix(0.96, 0.21, -0.19, 0.98, 37.73, 696.81)" fill="#fff" opacity="0.956"/></g></g></svg>