<svg xmlns="http://www.w3.org/2000/svg" xmlns:xlink="http://www.w3.org/1999/xlink" width="819.941" height="824.007" viewBox="0 0 819.941 824.007"><defs><filter id="a" x="261.866" y="0" width="215.59" height="194.754" filterUnits="userSpaceOnUse"><feOffset dy="3" input="SourceAlpha"/><feGaussianBlur stdDeviation="3" result="b"/><feFlood flood-opacity="0.161"/><feComposite operator="in" in2="b"/><feComposite in="SourceGraphic"/></filter><filter id="c" x="260.418" y="183.074" width="245.492" height="238.282" filterUnits="userSpaceOnUse"><feOffset dy="3" input="SourceAlpha"/><feGaussianBlur stdDeviation="3" result="d"/><feFlood flood-opacity="0.161"/><feComposite operator="in" in2="d"/><feComposite in="SourceGraphic"/></filter><filter id="e" x="561.747" y="274.858" width="258.194" height="289.073" filterUnits="userSpaceOnUse"><feOffset dy="13" input="SourceAlpha"/><feGaussianBlur stdDeviation="8" result="f"/><feFlood flood-opacity="0.161"/><feComposite operator="in" in2="f"/><feComposite in="SourceGraphic"/></filter><filter id="g" x="138.13" y="294.088" width="259.215" height="250.411" filterUnits="userSpaceOnUse"><feOffset dy="3" input="SourceAlpha"/><feGaussianBlur stdDeviation="3" result="h"/><feFlood flood-opacity="0.161"/><feComposite operator="in" in2="h"/><feComposite in="SourceGraphic"/></filter><filter id="i" x="375.68" y="101.537" width="206.105" height="200.701" filterUnits="userSpaceOnUse"><feOffset dy="3" input="SourceAlpha"/><feGaussianBlur stdDeviation="3" result="j"/><feFlood flood-opacity="0.161"/><feComposite operator="in" in2="j"/><feComposite in="SourceGraphic"/></filter><filter id="k" x="0" y="173.818" width="272.707" height="242.06" filterUnits="userSpaceOnUse"><feOffset dy="3" input="SourceAlpha"/><feGaussianBlur stdDeviation="3" result="l"/><feFlood flood-opacity="0.161"/><feComposite operator="in" in2="l"/><feComposite in="SourceGraphic"/></filter><filter id="m" x="391.854" y="517.063" width="268.901" height="306.944" filterUnits="userSpaceOnUse"><feOffset dy="8" input="SourceAlpha"/><feGaussianBlur stdDeviation="4" result="n"/><feFlood flood-opacity="0.161"/><feComposite operator="in" in2="n"/><feComposite in="SourceGraphic"/></filter><filter id="o" x="380.426" y="287.763" width="239.815" height="252.036" filterUnits="userSpaceOnUse"><feOffset dy="3" input="SourceAlpha"/><feGaussianBlur stdDeviation="3" result="p"/><feFlood flood-opacity="0.161"/><feComposite operator="in" in2="p"/><feComposite in="SourceGraphic"/></filter><filter id="q" x="277.051" y="415.094" width="245.776" height="258.689" filterUnits="userSpaceOnUse"><feOffset dy="3" input="SourceAlpha"/><feGaussianBlur stdDeviation="3" result="r"/><feFlood flood-opacity="0.161"/><feComposite operator="in" in2="r"/><feComposite in="SourceGraphic"/></filter><filter id="s" x="141.081" y="80.387" width="241.189" height="216.017" filterUnits="userSpaceOnUse"><feOffset dy="3" input="SourceAlpha"/><feGaussianBlur stdDeviation="3" result="t"/><feFlood flood-opacity="0.161"/><feComposite operator="in" in2="t"/><feComposite in="SourceGraphic"/></filter></defs><g transform="matrix(0.951, 0, 0.085, 0.961, -705.875, -209.703)"><g transform="matrix(1.05, 0, -0.09, 1.04, 722.66, 218.15)" filter="url(#a)"><rect width="148" height="148" transform="matrix(0.61, -0.68, 0.73, 0.68, 271.32, 81.56)" fill="#fff"/></g><g transform="matrix(1.05, 0, -0.09, 1.04, 722.66, 218.15)" filter="url(#c)"><rect width="148" height="148" rx="5" transform="matrix(0.61, -0.68, 0.73, 0.68, 290.44, 297.36)" fill="#004871" opacity="0.837"/></g><g transform="matrix(1.05, 0, -0.09, 1.04, 722.66, 218.15)" filter="url(#e)"><rect width="148" height="148" transform="matrix(0.61, -0.68, 0.73, 0.68, 608.93, 405.02)" fill="#fff" opacity="0.492"/></g><g transform="matrix(1.05, 0, -0.09, 1.04, 722.66, 218.15)" filter="url(#g)"><rect width="148" height="148" transform="matrix(0.61, -0.68, 0.73, 0.68, 193.47, 405.02)" fill="#0068a2"/></g><g transform="matrix(1.05, 0, -0.09, 1.04, 722.66, 218.15)" filter="url(#i)"><rect width="148" height="148" rx="5" transform="matrix(0.61, -0.68, 0.73, 0.68, 384.51, 189.08)" fill="#0068a2"/></g><path d="M67.457,57.7,45.529,21.163V6.365h2.218a2.218,2.218,0,0,0,0-4.437H25.563a2.218,2.218,0,1,0,0,4.437h2.218v14.8L5.854,57.7C.832,66.071,4.709,72.919,14.47,72.919H58.84c9.761,0,13.639-6.848,8.617-15.219ZM17.87,46.3,32.218,22.384V6.365h8.874V22.384L55.44,46.3Z" transform="translate(1177.345 377.425)" fill="#fff"/><g transform="matrix(1.05, 0, -0.09, 1.04, 722.66, 218.15)" filter="url(#k)"><rect width="148" height="148" rx="5" transform="matrix(0.61, -0.68, 0.73, 0.68, 79.14, 295.44)" fill="#fff"/></g><path d="M35.438.562a35.028,35.028,0,0,1,35.553,35.5c0,21.054-16.961,35.5-35.553,35.5a35.5,35.5,0,0,1,0-70.991Zm.115,6.4A29.226,29.226,0,0,0,6.4,36.058,29.3,29.3,0,0,0,35.553,65.084a29.062,29.062,0,0,0,0-58.124ZM50.009,25.91a1.937,1.937,0,0,1,1.961,1.961V53.992a1.946,1.946,0,0,1-1.961,1.961H30.672a1.937,1.937,0,0,1-1.961-1.961V46.263H20.982A1.928,1.928,0,0,1,19.022,44.3V18.181A2.024,2.024,0,0,1,20.8,16.221H40.319a1.937,1.937,0,0,1,1.961,1.961V25.91h7.729ZM22.886,42.4h5.825V27.886a2.031,2.031,0,0,1,1.718-1.961h7.987V20.157H22.886V42.4Zm25.219-12.61H32.576V52.031H48.105V29.789Z" transform="translate(847.504 489.442)"/><g transform="matrix(1.05, 0, -0.09, 1.04, 722.66, 218.15)" filter="url(#m)"><rect width="148" height="148" rx="5" transform="matrix(0.61, -0.68, 0.73, 0.68, 423.15, 625.15)" fill="#0068a2" opacity="0.631"/></g><g transform="matrix(1.05, 0, -0.09, 1.04, 722.66, 218.15)" filter="url(#o)"><rect width="148" height="148" transform="matrix(0.61, -0.68, 0.73, 0.68, 403.65, 405.02)" fill="#a70057" opacity="0.654"/></g><path d="M49.539,26.716a9.608,9.608,0,1,0-9.608-9.608A9.568,9.568,0,0,0,49.539,26.716Zm-25.621,0a9.608,9.608,0,1,0-9.608-9.608A9.568,9.568,0,0,0,23.918,26.716Zm0,6.405C16.456,33.121,1.5,36.868,1.5,44.33v8.007H46.337V44.33C46.337,36.868,31.38,33.121,23.918,33.121Zm25.621,0c-.929,0-1.986.064-3.107.16,3.715,2.69,6.309,6.309,6.309,11.049v8.007H71.957V44.33C71.957,36.868,57,33.121,49.539,33.121Z" transform="translate(1172.923 609.582)" fill="#fff"/><g transform="matrix(1.05, 0, -0.09, 1.04, 722.66, 218.15)" filter="url(#q)"><rect width="148" height="148" rx="5" transform="matrix(0.61, -0.68, 0.73, 0.68, 309.86, 516.53)" fill="#fff"/></g><path d="M47.084,38.784a24.669,24.669,0,1,0-8.3,8.3L55.517,63.818l8.3-8.3Zm-21.032,2.5A15.218,15.218,0,1,1,41.278,26.071,15.243,15.243,0,0,1,26.052,41.28Z" transform="translate(1072.371 722.871)"/><g transform="matrix(1.05, 0, -0.09, 1.04, 722.66, 218.15)" filter="url(#s)"><rect width="148" height="148" rx="5" transform="matrix(0.61, -0.68, 0.73, 0.68, 174.33, 189.08)" fill="#a70057"/></g><path d="M50.4,40.589A22.753,22.753,0,0,0,48.78,37.45V19.309A19.317,19.317,0,0,0,29.471,0h-.006A19.307,19.307,0,0,0,10.156,19.309v2.639H17.89V19.309a11.578,11.578,0,0,1,23.155,0V29.866A22.764,22.764,0,1,0,50.4,40.6Zm-20.982,23.9A15.039,15.039,0,1,1,44.461,49.455,15.057,15.057,0,0,1,29.423,64.494Zm6.455-14.969a6.38,6.38,0,1,1-6.38-6.38,6.38,6.38,0,0,1,6.38,6.38Z" transform="translate(963.578 378.731)" fill="#fff"/></g></svg>